<svg width="179" height="38" viewBox="0 0 179 38" fill="none" xmlns="http://www.w3.org/2000/svg">
<path d="M18.3622 38C15.0978 38 12.0545 36.4641 9.23213 33.3923C6.40978 30.3205 4.16551 26.5621 2.49931 22.117C0.833102 17.6358 0 13.4798 0 9.64907C0 6.86638 0.578071 4.58963 1.73421 2.81883C2.89035 1.01189 4.60756 0.108415 6.88584 0.108415C8.75607 0.108415 10.2863 0.867332 11.4764 2.38517C12.7006 3.903 13.6527 5.76415 14.3328 7.96862C15.0128 10.1369 15.7439 12.9919 16.526 16.5335C17.2401 19.8583 17.8522 22.3157 18.3622 23.9058C18.8043 22.7855 19.2294 21.4484 19.6374 19.8944C20.0455 18.3405 20.4195 16.8046 20.7595 15.2867C21.5416 11.962 22.2557 9.28768 22.9018 7.26391C23.5819 5.24013 24.466 3.54161 25.5541 2.16833C26.6423 0.795054 28.0194 0.108415 29.6856 0.108415C31.9639 0.108415 33.6811 0.975748 34.8373 2.71041C35.9934 4.44508 36.5715 6.75796 36.5715 9.64907C36.5715 13.4798 35.7554 17.6358 34.1232 22.117C32.491 26.5621 30.2637 30.3205 27.4414 33.3923C24.653 36.4641 21.6266 38 18.3622 38Z" fill="#2D2D2D"/>
<path d="M49.4027 38C46.9204 38 44.7442 37.3495 42.8739 36.0485C41.0037 34.7114 39.5585 32.8683 38.5384 30.5193C37.5523 28.1341 37.0592 25.3875 37.0592 22.2796C37.0592 19.2439 37.5183 16.8588 38.4364 15.1241C39.3545 13.3894 40.6297 12.5221 42.2619 12.5221C45.1522 12.5221 46.5974 14.0941 46.5974 17.2382C46.5974 17.8887 46.5804 18.467 46.5464 18.9729C46.5124 19.4427 46.4784 19.8583 46.4444 20.2197C46.3083 21.6652 46.2403 22.8217 46.2403 23.689C46.2403 25.2791 46.5464 26.4898 47.1585 27.321C47.7705 28.1522 48.5186 28.5678 49.4027 28.5678C50.3208 28.5678 51.0689 28.1702 51.647 27.3752C52.2591 26.544 52.5651 25.3153 52.5651 23.689C52.5651 22.5326 52.5141 21.4665 52.4121 20.4907C52.3781 20.1655 52.3441 19.6957 52.3101 19.0813C52.2761 18.4308 52.2591 17.8345 52.2591 17.2924C52.2591 14.1122 53.7043 12.5221 56.5946 12.5221C58.2268 12.5221 59.485 13.3894 60.3691 15.1241C61.2872 16.8226 61.7462 19.2078 61.7462 22.2796C61.7462 27.0861 60.6921 30.9168 58.5839 33.7718C56.4756 36.5906 53.4152 38 49.4027 38Z" fill="#2D2D2D"/>
<path d="M74.7823 37.9458C72.266 37.9458 70.2768 37.8193 68.8146 37.5663C67.3864 37.2772 66.2643 36.7171 65.4482 35.8859C64.6661 35.0185 64.275 33.7175 64.275 31.9829C64.275 30.5012 64.9551 29.0737 66.3153 27.7004C67.6754 26.3271 69.8517 24.5202 72.8441 22.2796C70.3958 22.2796 68.5596 22.2073 67.3354 22.0628C66.1453 21.9182 65.1931 21.5207 64.479 20.8702C63.799 20.1835 63.4589 19.0813 63.4589 17.5635C63.4589 15.7204 64.36 14.4194 66.1623 13.6605C67.9985 12.9016 70.7358 12.5221 74.3743 12.5221C78.1827 12.5221 80.9881 12.9919 82.7903 13.9315C84.5925 14.835 85.4936 16.5335 85.4936 19.0271C85.4936 21.0147 84.6605 22.912 82.9943 24.719C81.3621 26.5259 79.3899 28.0437 77.0776 29.2725C78.9818 29.2725 80.495 29.3628 81.6171 29.5435C82.7393 29.6881 83.6234 30.0675 84.2695 30.6819C84.9496 31.2601 85.2896 32.1455 85.2896 33.3381C85.2896 35.2173 84.4395 36.4641 82.7393 37.0785C81.0731 37.6567 78.4208 37.9458 74.7823 37.9458Z" fill="#2D2D2D"/>
<path d="M116.17 0.162626C118.074 0.162626 119.536 0.867333 120.556 2.27675C121.611 3.68616 122.325 5.74608 122.699 8.45649C123.073 11.1308 123.26 14.6904 123.26 19.1355C123.26 23.5806 123.073 27.1403 122.699 29.8145C122.325 32.4527 121.628 34.4584 120.607 35.8317C119.587 37.2049 118.108 37.8916 116.17 37.8916C113.858 37.8916 112.225 36.8436 111.273 34.7475C110.321 32.6514 109.76 29.399 109.59 24.99C108.536 25.0262 106.802 25.0442 104.387 25.0442H101.735C101.531 29.4532 100.953 32.7057 100.001 34.8017C99.0488 36.8978 97.4166 37.9458 95.1043 37.9458C93.1661 37.9458 91.6869 37.2592 90.6668 35.8859C89.6466 34.5126 88.9496 32.5069 88.5755 29.8688C88.2355 27.1945 88.0655 23.6167 88.0655 19.1355C88.0655 14.6543 88.2355 11.0766 88.5755 8.40228C88.9496 5.72801 89.6466 3.70423 90.6668 2.33095C91.6869 0.921541 93.1661 0.216834 95.1043 0.216834C96.7705 0.216834 98.0797 0.776986 99.0318 1.89729C99.9839 2.98146 100.647 4.57156 101.021 6.66762C101.429 8.72753 101.684 11.4018 101.786 14.6904H105.408C107.278 14.6904 108.655 14.7085 109.539 14.7446C109.641 9.75749 110.151 6.0894 111.069 3.74037C112.021 1.35521 113.722 0.162626 116.17 0.162626Z" fill="#4182FA"/>
<path d="M138.166 38C135.683 38 133.507 37.3495 131.637 36.0485C129.766 34.7114 128.321 32.8683 127.301 30.5193C126.315 28.1341 125.822 25.3875 125.822 22.2796C125.822 19.2439 126.281 16.8588 127.199 15.1241C128.117 13.3894 129.392 12.5221 131.025 12.5221C133.915 12.5221 135.36 14.0941 135.36 17.2382C135.36 17.8887 135.343 18.467 135.309 18.9729C135.275 19.4427 135.241 19.8583 135.207 20.2197C135.071 21.6652 135.003 22.8217 135.003 23.689C135.003 25.2791 135.309 26.4898 135.921 27.321C136.533 28.1522 137.281 28.5678 138.166 28.5678C139.084 28.5678 139.832 28.1702 140.41 27.3752C141.022 26.544 141.328 25.3153 141.328 23.689C141.328 22.5326 141.277 21.4665 141.175 20.4907C141.141 20.1655 141.107 19.6957 141.073 19.0813C141.039 18.4308 141.022 17.8345 141.022 17.2924C141.022 14.1122 142.467 12.5221 145.357 12.5221C146.99 12.5221 148.248 13.3894 149.132 15.1241C150.05 16.8226 150.509 19.2078 150.509 22.2796C150.509 27.0861 149.455 30.9168 147.347 33.7718C145.238 36.5906 142.178 38 138.166 38Z" fill="#4182FA"/>
<path d="M166.861 38C160.672 38 156.676 35.9943 154.874 31.9829C153.106 27.9353 152.222 23.8336 152.222 19.6776C152.222 16.6058 152.477 13.5701 152.987 10.5706C153.531 7.57109 154.398 5.05944 155.588 3.03566C156.778 1.01189 158.325 0 160.23 0C161.42 0 162.44 0.397528 163.29 1.19258C164.14 1.98764 164.565 3.14408 164.565 4.66191C164.565 5.42083 164.497 6.17974 164.361 6.93866C164.225 7.69757 164.021 8.63718 163.749 9.75749C163.681 9.97432 163.545 10.5164 163.341 11.3837C163.171 12.2511 163.052 13.0642 162.984 13.8231C164.48 12.9558 166.18 12.5221 168.085 12.5221C169.989 12.5221 171.757 12.9738 173.389 13.8773C175.056 14.7808 176.399 16.1721 177.419 18.0514C178.473 19.8944 179 22.1531 179 24.8274C179 27.1041 178.507 29.2544 177.521 31.2782C176.535 33.2658 175.107 34.8921 173.236 36.1569C171.4 37.3856 169.275 38 166.861 38ZM166.554 29.4351C167.473 29.4351 168.272 29.0737 168.952 28.3509C169.666 27.592 170.023 26.7066 170.023 25.6947C170.023 24.6828 169.666 23.7974 168.952 23.0385C168.272 22.2796 167.473 21.9001 166.554 21.9001C165.636 21.9001 164.837 22.2796 164.157 23.0385C163.477 23.7974 163.137 24.6828 163.137 25.6947C163.137 26.7066 163.477 27.592 164.157 28.3509C164.837 29.0737 165.636 29.4351 166.554 29.4351Z" fill="#4182FA"/>
</svg>
