<svg width="18" height="17" viewBox="0 0 18 17" fill="none" xmlns="http://www.w3.org/2000/svg">
<path d="M16.3161 16.7295C16.719 17.1073 17.3518 17.0869 17.7295 16.6839C18.1073 16.281 18.0869 15.6482 17.6839 15.2705L16.3161 16.7295ZM14.9107 7.98937C14.9107 11.2374 12.0823 13.9787 8.45533 13.9787V15.9787C13.0633 15.9787 16.9107 12.4616 16.9107 7.98937H14.9107ZM8.45533 13.9787C4.82838 13.9787 2 11.2374 2 7.98937H0C0 12.4616 3.84736 15.9787 8.45533 15.9787V13.9787ZM2 7.98937C2 4.74135 4.82838 2 8.45533 2V0C3.84736 0 0 3.51715 0 7.98937H2ZM8.45533 2C12.0823 2 14.9107 4.74135 14.9107 7.98937H16.9107C16.9107 3.51715 13.0633 0 8.45533 0V2ZM17.6839 15.2705L14.3007 12.0986L12.9328 13.5577L16.3161 16.7295L17.6839 15.2705Z" fill="#4182FA"/>
</svg>
