<svg width="18" height="22" viewBox="0 0 18 22" fill="none" xmlns="http://www.w3.org/2000/svg">
<path fill-rule="evenodd" clip-rule="evenodd" d="M9.76532 21.6491C12.8288 18.3736 18 12.8445 18 8.52327C18 3.816 13.9706 0 9 0C4.02944 0 0 3.816 0 8.52327C0 12.8445 5.17122 18.3736 8.23468 21.6491L8.26407 21.6805C8.66258 22.1066 9.33742 22.1066 9.73592 21.6805L9.76532 21.6491ZM8.99997 12.3975C11.2593 12.3975 13.0909 10.6629 13.0909 8.52326C13.0909 6.38359 11.2593 4.64904 8.99997 4.64904C6.74062 4.64904 4.90906 6.38359 4.90906 8.52326C4.90906 10.6629 6.74062 12.3975 8.99997 12.3975Z" fill="#4182FA"/>
</svg>
